<?xml version="1.0" encoding="utf-8"?>
<!-- Generator: Adobe Illustrator 27.3.1, SVG Export Plug-In . SVG Version: 6.00 Build 0)  -->
<svg version="1.1" id="Layer_1" xmlns="http://www.w3.org/2000/svg" xmlns:xlink="http://www.w3.org/1999/xlink" x="0px" y="0px"
	 viewBox="0 0 72 78.2" style="enable-background:new 0 0 72 78.2;" xml:space="preserve">
<style type="text/css">
	.st0{fill:#FFFFFF;}
</style>
<g>
	<path class="st0" d="M21.1,58.5L34.5,45c0.9-1,0.8-2,0-2.8l-1.3-1.3L10.2,64L0,53.7L53.4,0l13.5,13.6c6.3,6.3,6.6,12.8,1.8,17.6
		L57.2,42.8c-2.8,2.8-6.4,3.9-10,2.8c1.6,3.2,0.9,6.3-2.4,9.7L30.9,69.2c-2.8,2.8-5.7,6.2-6.2,8.6l-0.4,0.4L13.7,67.5
		C14.2,66.3,15.7,64,21.1,58.5L21.1,58.5L21.1,58.5z M41.2,35.5c0.8,0.8,1.9,1,2.8,0l13.5-13.6c0.9-0.9,0.8-2,0-2.8l-1.3-1.3
		L39.9,34.1L41.2,35.5z"/>
</g>
</svg>
