<?xml version="1.0" encoding="utf-8"?>
<!-- Generator: Adobe Illustrator 27.3.1, SVG Export Plug-In . SVG Version: 6.00 Build 0)  -->
<svg version="1.1" id="Layer_1" xmlns="http://www.w3.org/2000/svg" xmlns:xlink="http://www.w3.org/1999/xlink" x="0px" y="0px"
	 viewBox="0 0 66.3 66.8" style="enable-background:new 0 0 66.3 66.8;" xml:space="preserve">
<style type="text/css">
	.st0{fill:#FFFFFF;}
</style>
<g>
	<path class="st0" d="M4.3,39.2L38.9,4.4c6-6,13.8-6.3,21.6,1.5c7.8,7.9,7.3,15.6,1.3,21.6L52.4,37l-10-10l10.2-10.3
		c0.9-0.9,0.8-2.1,0-2.8c-0.7-0.7-1.8-0.9-2.8,0.1L13.8,50.3c-0.9,0.9-0.8,2-0.1,2.8c0.8,0.8,2,0.9,2.8,0l10.2-10.3l10,10l-9.4,9.5
		c-5.9,5.9-13.5,6.5-21.4-1.4C-1.8,53-1.5,45.1,4.3,39.2C4.4,39.2,4.3,39.2,4.3,39.2z"/>
</g>
</svg>
