<?xml version="1.0" encoding="UTF-8"?><svg ifill="currentcolor" d="Layer_2" xmlns="http://www.w3.org/2000/svg" viewBox="0 0 181.66 182.43"><g ifill="currentcolor" d="Layer_2-2"><path fill="currentcolor" d="m21.92,162.75l13.43-13.51c.94-.95.78-2.05,0-2.84l-1.33-1.34-23,23.15-10.21-10.27,53.39-53.72,13.5,13.59c6.28,6.32,6.59,12.8,1.81,17.62l-11.54,11.61c-2.83,2.84-6.36,3.87-9.97,2.76,1.57,3.16.94,6.32-2.43,9.72l-13.82,13.9c-2.83,2.84-5.73,6.24-6.2,8.61l-.39.4-10.68-10.74c.55-1.19,2.04-3.48,7.46-8.93h-.02Zm20.1-23.07c.79.79,1.88.95,2.83,0l13.5-13.59c.86-.87.79-2.05,0-2.84l-1.33-1.34-16.33,16.43,1.33,1.34Z"/><path fill="currentcolor" d="m113.19,45.24l34.54-34.76c5.97-6,13.82-6.32,21.59,1.5,7.85,7.9,7.3,15.56,1.33,21.57l-9.42,9.48-9.97-10.03,10.21-10.27c.94-.95.79-2.05,0-2.84-.71-.71-1.81-.87-2.75.08l-36.11,36.34c-.86.87-.79,2.05-.08,2.76.79.79,1.96.87,2.83,0l10.21-10.27,9.97,10.03-9.42,9.48c-5.89,5.92-13.5,6.48-21.35-1.42-7.77-7.82-7.46-15.72-1.57-21.65h-.01Z"/><path fill="currentcolor" d="m0,24.65l10.21-10.27,20.49,20.62L13.11,11.45,24.49,0l16.02,27.97,37.76,25.36-11.38,11.45-23.95-19.67,3.61,5.85,17.04,17.14-10.21,10.27L0,24.65Z"/><path fill="currentcolor" d="m134.63,134.92l32.19,36.97-10.36,10.43-58.88-48.19,10.21-10.27,39.96,36.58-35.49-41.08,6.83-6.87,40.82,35.71-36.35-40.21,10.21-10.27,47.89,59.25-10.36,10.43-36.66-32.47h0Z"/></g></svg>