<?xml version="1.0" encoding="UTF-8"?><svg ifill="currentcolor" d="Layer_2" xmlns="http://www.w3.org/2000/svg" viewBox="0 0 66.32 66.75"><g ifill="currentcolor" d="Layer_2-2"><path fill="currentcolor" d="m4.34,39.2L38.88,4.44c5.97-6,13.82-6.32,21.59,1.5,7.85,7.9,7.3,15.56,1.33,21.57l-9.42,9.48-9.97-10.03,10.21-10.27c.94-.95.79-2.05,0-2.84-.71-.71-1.81-.87-2.75.08L13.76,50.27c-.86.87-.79,2.05-.08,2.76.79.79,1.96.87,2.83,0l10.21-10.27,9.97,10.03-9.42,9.48c-5.89,5.92-13.5,6.48-21.35-1.42-7.77-7.82-7.46-15.72-1.57-21.65h-.01Z"/></g></svg>