<?xml version="1.0" encoding="UTF-8"?><svg ifill="currentcolor" d="Layer_2" xmlns="http://www.w3.org/2000/svg" viewBox="0 0 71.98 78.21"><g ifill="currentcolor" d="Layer_2-2"><path fill="currentcolor" d="m21.11,58.53l13.43-13.51c.94-.95.78-2.05,0-2.84l-1.33-1.34-23,23.15L0,53.72,53.39,0l13.5,13.59c6.28,6.32,6.59,12.8,1.81,17.62l-11.54,11.61c-2.83,2.84-6.36,3.87-9.97,2.76,1.57,3.16.94,6.32-2.43,9.72l-13.82,13.9c-2.83,2.84-5.73,6.24-6.2,8.61l-.39.4-10.68-10.74c.55-1.19,2.04-3.48,7.46-8.93h-.02Zm20.1-23.07c.79.79,1.88.95,2.83,0l13.5-13.59c.86-.87.79-2.05,0-2.84l-1.33-1.34-16.33,16.43,1.33,1.34Z"/></g></svg>